<svg width="140" height="33" viewBox="0 0 140 33" fill="none" xmlns="http://www.w3.org/2000/svg">
<path d="M1.4859 2.20452C1.13791 2.55969 0.936523 3.11266 0.936523 3.82877V29.3721C0.936523 30.0882 1.13791 30.6412 1.4859 30.9964L1.57179 31.0743L16.2524 16.7665V16.4286L1.57179 2.12078L1.4859 2.20452Z" fill="white"/>
<path d="M22.9175 21.5382L18.0293 16.7665V16.4286L22.9234 11.6569L23.033 11.719L28.8288 14.9343C30.4829 15.8468 30.4829 17.3483 28.8288 18.2666L23.033 21.4761L22.9175 21.5382Z" fill="white"/>
<path d="M22.1445 22.3646L17.1409 17.486L2.37436 31.8849C2.92374 32.4479 3.81962 32.5158 4.83841 31.9527L22.1445 22.3646Z" fill="white"/>
<path d="M22.1445 10.8306L4.83841 1.24242C3.81962 0.685118 2.92374 0.752974 2.37436 1.31605L17.1409 15.7091L22.1445 10.8306Z" fill="white"/>
<path d="M46.1853 5.32887C46.1853 6.29331 45.8891 7.06573 45.3057 7.6418C44.6349 8.32471 43.7612 8.66833 42.6906 8.66833C41.6674 8.66833 40.7937 8.31893 40.077 7.63025C39.3588 6.93146 39.0005 6.07386 39.0005 5.04733C39.0005 4.0208 39.3588 3.1632 40.077 2.47018C40.7937 1.77573 41.6674 1.42633 42.6906 1.42633C43.2 1.42633 43.6857 1.52884 44.1492 1.71942C44.6112 1.91144 44.9873 2.17132 45.2598 2.49184L44.6408 3.10112C44.1655 2.55392 43.5184 2.28394 42.6906 2.28394C41.9443 2.28394 41.2972 2.53804 40.7478 3.05058C40.2043 3.56457 39.9319 4.23015 39.9319 5.04733C39.9319 5.86451 40.2043 6.53586 40.7478 7.04985C41.2972 7.55662 41.9443 7.8165 42.6906 7.8165C43.4828 7.8165 44.1492 7.55662 44.6749 7.04408C45.0214 6.70479 45.2183 6.237 45.2702 5.63928H42.6906V4.80477H46.132C46.1734 4.98525 46.1853 5.15994 46.1853 5.32887Z" fill="white"/>
<path d="M51.645 2.43553H48.4124V4.63007H51.3266V5.46457H48.4124V7.65912H51.645V8.5095H47.4973V1.58514H51.645V2.43553Z" fill="white"/>
<path d="M55.498 8.5095H54.5829V2.43553H52.6001V1.58514H57.4823V2.43553H55.498V8.5095Z" fill="white"/>
<path d="M61.0155 8.5095V1.58514H61.9292V8.5095H61.0155Z" fill="white"/>
<path d="M65.9791 8.5095H65.0714V2.43553H63.0812V1.58514H67.9693V2.43553H65.9791V8.5095Z" fill="white"/>
<path d="M77.2125 7.6187C76.5121 8.31893 75.6443 8.66833 74.6092 8.66833C73.5682 8.66833 72.7005 8.31893 72.0001 7.6187C71.3011 6.91991 70.9531 6.06231 70.9531 5.04733C70.9531 4.03235 71.3011 3.17475 72.0001 2.47596C72.7005 1.77573 73.5682 1.42633 74.6092 1.42633C75.6384 1.42633 76.5061 1.77573 77.2066 2.48173C77.9114 3.1863 78.2594 4.03813 78.2594 5.04733C78.2594 6.06231 77.9114 6.91991 77.2125 7.6187ZM72.6768 7.0383C73.2039 7.55662 73.8451 7.8165 74.6092 7.8165C75.3674 7.8165 76.0145 7.55662 76.5358 7.0383C77.0614 6.51998 77.328 5.8544 77.328 5.04733C77.328 4.24026 77.0614 3.57468 76.5358 3.05636C76.0145 2.53804 75.3674 2.27816 74.6092 2.27816C73.8451 2.27816 73.2039 2.53804 72.6768 3.05636C72.1511 3.57468 71.8846 4.24026 71.8846 5.04733C71.8846 5.8544 72.1511 6.51998 72.6768 7.0383Z" fill="white"/>
<path d="M79.5433 8.5095V1.58514H80.6539L84.1071 6.97044H84.1471L84.1071 5.63927V1.58514H85.0207V8.5095H84.0671L80.451 2.85855H80.411L80.451 4.19549V8.5095H79.5433Z" fill="white"/>
<path d="M70.7281 18.6218C67.9456 18.6218 65.6726 20.6864 65.6726 23.5349C65.6726 26.3604 67.9456 28.4467 70.7281 28.4467C73.5164 28.4467 75.7894 26.3604 75.7894 23.5349C75.7894 20.6864 73.5164 18.6218 70.7281 18.6218ZM70.7281 26.512C69.2014 26.512 67.8879 25.2834 67.8879 23.5349C67.8879 21.7634 69.2014 20.5564 70.7281 20.5564C72.2548 20.5564 73.5742 21.7634 73.5742 23.5349C73.5742 25.2834 72.2548 26.512 70.7281 26.512ZM59.6976 18.6218C56.9092 18.6218 54.6421 20.6864 54.6421 23.5349C54.6421 26.3604 56.9092 28.4467 59.6976 28.4467C62.4845 28.4467 64.753 26.3604 64.753 23.5349C64.753 20.6864 62.4845 18.6218 59.6976 18.6218ZM59.6976 26.512C58.1694 26.512 56.8515 25.2834 56.8515 23.5349C56.8515 21.7634 58.1694 20.5564 59.6976 20.5564C61.2243 20.5564 62.5378 21.7634 62.5378 23.5349C62.5378 25.2834 61.2243 26.512 59.6976 26.512ZM46.5718 20.1276V22.2153H51.685C51.5354 23.3819 51.1356 24.2395 50.5226 24.8372C49.7762 25.5591 48.6138 26.3604 46.5718 26.3604C43.4251 26.3604 40.961 23.8843 40.961 20.8163C40.961 17.7483 43.4251 15.2722 46.5718 15.2722C48.2732 15.2722 49.5112 15.9205 50.4248 16.7607L51.9338 15.2895C50.6558 14.0998 48.9559 13.1859 46.5718 13.1859C42.2567 13.1859 38.6303 16.6091 38.6303 20.8163C38.6303 25.0235 42.2567 28.4467 46.5718 28.4467C48.904 28.4467 50.6558 27.7017 52.033 26.3041C53.4442 24.9282 53.884 22.9935 53.884 21.4314C53.884 20.9462 53.8425 20.5001 53.7685 20.1276H46.5718ZM100.245 21.7461C99.8287 20.6474 98.5449 18.6218 95.9298 18.6218C93.3384 18.6218 91.1809 20.6127 91.1809 23.5349C91.1809 26.2868 93.3162 28.4467 96.1786 28.4467C98.493 28.4467 99.8287 27.0708 100.378 26.2695L98.6604 25.1534C98.0873 25.9706 97.3069 26.512 96.1786 26.512C95.0576 26.512 94.2535 26.011 93.7382 25.0235L100.477 22.3048L100.245 21.7461ZM93.3739 23.3819C93.3162 21.4877 94.8829 20.5174 96.0053 20.5174C96.8849 20.5174 97.6312 20.9462 97.88 21.5599L93.3739 23.3819ZM87.8964 28.1478H90.1117V13.71H87.8964V28.1478ZM84.2685 19.7161H84.1944C83.6969 19.1415 82.7477 18.6218 81.5453 18.6218C79.022 18.6218 76.7149 20.7817 76.7149 23.5508C76.7149 26.3041 79.022 28.4467 81.5453 28.4467C82.7477 28.4467 83.6969 27.9226 84.1944 27.3306H84.2685V28.0352C84.2685 29.9136 83.2393 30.9228 81.5794 30.9228C80.2259 30.9228 79.3863 29.9699 79.0398 29.1686L77.1133 29.9525C77.6686 31.2548 79.139 32.8574 81.5794 32.8574C84.1767 32.8574 86.3683 31.3674 86.3683 27.7421V18.9206H84.2685V19.7161ZM81.7348 26.512C80.2081 26.512 78.9302 25.266 78.9302 23.5508C78.9302 21.8197 80.2081 20.5564 81.7348 20.5564C83.2393 20.5564 84.4255 21.8197 84.4255 23.5508C84.4255 25.266 83.2393 26.512 81.7348 26.512ZM110.616 13.71H105.318V28.1478H107.527V22.6773H110.616C113.07 22.6773 115.476 20.9462 115.476 18.193C115.476 15.4411 113.064 13.71 110.616 13.71ZM110.674 20.669H107.527V15.7183H110.674C112.324 15.7183 113.265 17.0538 113.265 18.193C113.265 19.3104 112.324 20.669 110.674 20.669ZM124.332 18.5943C122.735 18.5943 121.075 19.2816 120.393 20.8048L122.353 21.6061C122.775 20.8048 123.551 20.5449 124.371 20.5449C125.518 20.5449 126.68 21.2162 126.698 22.4016V22.5532C126.298 22.3279 125.442 21.9944 124.389 21.9944C122.278 21.9944 120.126 23.1278 120.126 25.2429C120.126 27.1776 121.856 28.4236 123.8 28.4236C125.287 28.4236 126.107 27.7695 126.622 27.0087H126.698V28.1247H128.832V22.5864C128.832 20.0266 126.871 18.5943 124.332 18.5943ZM124.065 26.5062C123.342 26.5062 122.335 26.1568 122.335 25.2834C122.335 24.1659 123.591 23.7371 124.678 23.7371C125.651 23.7371 126.107 23.9464 126.698 24.2222C126.525 25.5591 125.344 26.5062 124.065 26.5062ZM136.606 18.9105L134.066 25.1693H133.991L131.365 18.9105H128.983L132.928 27.6569L130.677 32.5239H132.985L139.064 18.9105H136.606ZM116.691 28.1478H118.906V13.71H116.691V28.1478Z" fill="white"/>
</svg>
