<svg width="123" height="33" viewBox="0 0 123 33" fill="none" xmlns="http://www.w3.org/2000/svg">
<path d="M19.4876 15.7269C19.455 12.1945 22.4541 10.4759 22.5913 10.3959C20.8927 7.98144 18.2601 7.65154 17.3349 7.62524C15.1238 7.39836 12.979 8.91523 11.8527 8.91523C10.7038 8.91523 8.96934 7.64716 7.09996 7.68442C4.69437 7.72059 2.44391 9.07854 1.20964 11.1872C-1.33758 15.4869 0.56216 21.8053 3.00259 25.2807C4.22337 26.9828 5.64986 28.8833 7.517 28.8164C9.34367 28.743 10.026 27.681 12.2304 27.681C14.4145 27.681 15.0552 28.8164 16.9595 28.7737C18.9199 28.743 20.1542 27.0639 21.3323 25.3465C22.743 23.3956 23.3096 21.4743 23.332 21.3757C23.2859 21.3603 19.5247 19.9607 19.4876 15.7269Z" fill="white"/>
<path d="M15.8905 5.33898C16.8729 4.14105 17.5451 2.51129 17.3585 0.857422C15.9365 0.918798 14.1582 1.81642 13.1342 2.98805C12.2281 4.02049 11.4188 5.71271 11.6279 7.30411C13.2252 7.42028 14.8653 6.51827 15.8905 5.33898Z" fill="white"/>
<path d="M40.7579 5.01347C40.7579 6.30347 40.3611 7.27453 39.5686 7.92665C38.8346 8.52835 37.7914 8.82976 36.4402 8.82976C35.7703 8.82976 35.197 8.80126 34.717 8.74427V1.69587C35.3431 1.59723 36.0176 1.54682 36.746 1.54682C38.0331 1.54682 39.0032 1.81972 39.6574 2.36553C40.3903 2.98258 40.7579 3.86486 40.7579 5.01347ZM39.5158 5.04526C39.5158 4.20901 39.2887 3.56785 38.8346 3.12068C38.3804 2.6746 37.7172 2.45102 36.8438 2.45102C36.4728 2.45102 36.157 2.47513 35.895 2.52555V7.88391C36.0401 7.90583 36.3053 7.91569 36.6909 7.91569C37.5924 7.91569 38.2883 7.67128 38.7784 7.18246C39.2685 6.69365 39.5158 5.98124 39.5158 5.04526Z" fill="white"/>
<path d="M47.3441 6.14016C47.3441 6.93476 47.1114 7.58579 46.646 8.09653C46.1581 8.62151 45.5118 8.88346 44.7047 8.88346C43.9268 8.88346 43.3074 8.63247 42.8454 8.12831C42.3845 7.62524 42.1541 6.99066 42.1541 6.22565C42.1541 5.42557 42.3912 4.76906 42.8679 4.25942C43.3445 3.74978 43.9852 3.49441 44.7923 3.49441C45.5702 3.49441 46.1952 3.7454 46.6685 4.24846C47.1181 4.73728 47.3441 5.36858 47.3441 6.14016ZM46.1222 6.17743C46.1222 5.70066 46.0165 5.29186 45.8063 4.951C45.559 4.5389 45.2071 4.33285 44.7496 4.33285C44.2764 4.33285 43.9167 4.5389 43.6694 4.951C43.458 5.29186 43.3535 5.70724 43.3535 6.19825C43.3535 6.67501 43.4591 7.08382 43.6694 7.42468C43.9245 7.83677 44.2797 8.04282 44.7384 8.04282C45.188 8.04282 45.541 7.83349 45.795 7.41372C46.0131 7.06628 46.1222 6.65419 46.1222 6.17743Z" fill="white"/>
<path d="M56.175 3.59963L54.517 8.76618H53.4378L52.751 6.52266C52.5768 5.96261 52.4351 5.40584 52.325 4.85345H52.3036C52.2013 5.42118 52.0597 5.97686 51.8776 6.52266L51.148 8.76618H50.0565L48.4974 3.59963H49.708L50.3072 6.05577C50.4522 6.63665 50.5714 7.19013 50.6669 7.71402H50.6883C50.776 7.28219 50.921 6.732 51.1255 6.06673L51.8776 3.60072H52.8376L53.5581 6.01412C53.7323 6.60267 53.874 7.16931 53.983 7.71512H54.0156C54.0954 7.18355 54.2157 6.61692 54.3753 6.01412L55.0183 3.60072H56.175V3.59963Z" fill="white"/>
<path d="M62.2823 8.76619H61.1042V5.80698C61.1042 4.89511 60.749 4.43917 60.0363 4.43917C59.6867 4.43917 59.4046 4.56412 59.1854 4.8151C58.9684 5.06609 58.8583 5.36201 58.8583 5.70067V8.7651H57.6802V5.07595C57.6802 4.62221 57.6656 4.1301 57.6375 3.59744H58.6728L58.7279 4.4052H58.7605C58.8976 4.15421 59.1022 3.94707 59.3709 3.78157C59.6901 3.58867 60.0476 3.49113 60.4388 3.49113C60.9334 3.49113 61.3448 3.64676 61.6719 3.95912C62.0788 4.34163 62.2823 4.91265 62.2823 5.67108V8.76619Z" fill="white"/>
<path d="M65.531 8.76618H64.354V1.22897H65.531V8.76618Z" fill="white"/>
<path d="M72.4667 6.14016C72.4667 6.93476 72.234 7.58579 71.7686 8.09653C71.2808 8.62151 70.6333 8.88346 69.8273 8.88346C69.0483 8.88346 68.4289 8.63247 67.968 8.12831C67.5071 7.62524 67.2767 6.99066 67.2767 6.22565C67.2767 5.42557 67.5139 4.76906 67.9905 4.25942C68.4671 3.74978 69.1079 3.49441 69.9138 3.49441C70.6929 3.49441 71.3167 3.7454 71.7911 4.24846C72.2408 4.73728 72.4667 5.36858 72.4667 6.14016ZM71.2437 6.17743C71.2437 5.70066 71.138 5.29186 70.9278 4.951C70.6816 4.5389 70.3286 4.33285 69.8723 4.33285C69.3979 4.33285 69.0382 4.5389 68.792 4.951C68.5807 5.29186 68.4761 5.70724 68.4761 6.19825C68.4761 6.67501 68.5818 7.08382 68.792 7.42468C69.0472 7.83677 69.4024 8.04282 69.861 8.04282C70.3107 8.04282 70.6625 7.83349 70.9165 7.41372C71.1357 7.06628 71.2437 6.65419 71.2437 6.17743Z" fill="white"/>
<path d="M78.1682 8.76618H77.1104L77.0227 8.17105H76.9901C76.6281 8.64562 76.1122 8.88346 75.4422 8.88346C74.942 8.88346 74.5373 8.72673 74.2327 8.41546C73.9561 8.13269 73.8179 7.78088 73.8179 7.3633C73.8179 6.732 74.0877 6.25086 74.6306 5.91767C75.1724 5.58449 75.9346 5.42118 76.9159 5.42886V5.33241C76.9159 4.65179 76.5494 4.31203 75.8154 4.31203C75.2927 4.31203 74.8318 4.44026 74.4339 4.69453L74.1944 3.94048C74.6868 3.64347 75.2949 3.49441 76.0121 3.49441C77.397 3.49441 78.0917 4.20681 78.0917 5.63162V7.53428C78.0917 8.05049 78.1176 8.46149 78.1682 8.76618ZM76.9451 6.99066V6.19387C75.6457 6.17195 74.9959 6.51938 74.9959 7.23507C74.9959 7.50468 75.0701 7.70635 75.2219 7.84116C75.3736 7.97597 75.567 8.04282 75.7974 8.04282C76.056 8.04282 76.2976 7.96281 76.518 7.80389C76.7394 7.64388 76.8754 7.44112 76.926 7.19232C76.9384 7.13643 76.9451 7.06848 76.9451 6.99066Z" fill="white"/>
<path d="M84.8622 8.76618H83.8168L83.7617 7.93651H83.7291C83.3952 8.5678 82.8265 8.88345 82.0272 8.88345C81.3887 8.88345 80.857 8.63904 80.4355 8.15023C80.0139 7.66141 79.8037 7.02682 79.8037 6.24757C79.8037 5.41132 80.0319 4.73399 80.4906 4.21667C80.9346 3.73443 81.4787 3.49331 82.1261 3.49331C82.8377 3.49331 83.3357 3.72676 83.6189 4.19475H83.6414V1.22897H84.8206V7.37426C84.8206 7.87732 84.8341 8.34093 84.8622 8.76618ZM83.6414 6.58733V5.72587C83.6414 5.57681 83.6302 5.45625 83.6088 5.36419C83.5425 5.088 83.3997 4.85564 83.1828 4.66823C82.9636 4.48081 82.6994 4.38655 82.3948 4.38655C81.9553 4.38655 81.6113 4.55643 81.3584 4.89729C81.1077 5.23815 80.9807 5.67326 80.9807 6.20482C80.9807 6.71556 81.101 7.12985 81.3426 7.44879C81.5978 7.78855 81.9418 7.95843 82.3723 7.95843C82.759 7.95843 83.0681 7.81704 83.3031 7.53318C83.5301 7.27123 83.6414 6.95558 83.6414 6.58733Z" fill="white"/>
<path d="M94.9376 6.14016C94.9376 6.93476 94.7049 7.58579 94.2395 8.09653C93.7516 8.62151 93.1064 8.88346 92.2982 8.88346C91.5214 8.88346 90.902 8.63247 90.4389 8.12831C89.978 7.62524 89.7476 6.99066 89.7476 6.22565C89.7476 5.42557 89.9848 4.76906 90.4614 4.25942C90.938 3.74978 91.5787 3.49441 92.387 3.49441C93.1637 3.49441 93.7898 3.7454 94.262 4.24846C94.7116 4.73728 94.9376 5.36858 94.9376 6.14016ZM93.7168 6.17743C93.7168 5.70066 93.6111 5.29186 93.4009 4.951C93.1525 4.5389 92.8018 4.33285 92.3431 4.33285C91.871 4.33285 91.5113 4.5389 91.2629 4.951C91.0515 5.29186 90.947 5.70724 90.947 6.19825C90.947 6.67501 91.0527 7.08382 91.2629 7.42468C91.518 7.83677 91.8733 8.04282 92.3319 8.04282C92.7815 8.04282 93.1356 7.83349 93.3897 7.41372C93.6066 7.06628 93.7168 6.65419 93.7168 6.17743Z" fill="white"/>
<path d="M101.272 8.76619H100.095V5.80698C100.095 4.89511 99.7397 4.43917 99.0259 4.43917C98.6763 4.43917 98.3942 4.56412 98.1761 4.8151C97.958 5.06609 97.849 5.36201 97.849 5.70067V8.7651H96.6698V5.07595C96.6698 4.62221 96.6563 4.1301 96.6282 3.59744H97.6624L97.7175 4.4052H97.7501C97.8883 4.15421 98.0929 3.94707 98.3605 3.78157C98.6808 3.58867 99.0372 3.49113 99.4295 3.49113C99.923 3.49113 100.334 3.64676 100.661 3.95912C101.07 4.34163 101.272 4.91265 101.272 5.67108V8.76619Z" fill="white"/>
<path d="M109.2 4.45999H107.903V6.96984C107.903 7.60771 108.133 7.92665 108.59 7.92665C108.801 7.92665 108.977 7.90911 109.115 7.87295L109.145 8.74427C108.912 8.82976 108.607 8.8725 108.23 8.8725C107.765 8.8725 107.403 8.73441 107.141 8.45821C106.878 8.18202 106.747 7.71731 106.747 7.06519V4.45999H105.973V3.59963H106.747V2.65269L107.902 2.31293V3.59854H109.199V4.45999H109.2Z" fill="white"/>
<path d="M115.437 8.76618H114.258V5.82889C114.258 4.90277 113.902 4.43916 113.191 4.43916C112.644 4.43916 112.271 4.70768 112.067 5.24472C112.032 5.35761 112.012 5.49571 112.012 5.65792V8.76509H110.835V1.22897H112.012V4.34271H112.034C112.405 3.77608 112.937 3.49331 113.626 3.49331C114.114 3.49331 114.517 3.64894 114.838 3.9613C115.237 4.35039 115.437 4.92908 115.437 5.69409V8.76618Z" fill="white"/>
<path d="M121.87 5.93849C121.87 6.14454 121.854 6.31771 121.826 6.45909H118.293C118.309 6.96983 118.477 7.35891 118.805 7.62853C119.104 7.86965 119.489 7.99021 119.961 7.99021C120.484 7.99021 120.961 7.9091 121.39 7.7458L121.574 8.54369C121.072 8.75631 120.481 8.86263 119.796 8.86263C118.975 8.86263 118.329 8.62699 117.861 8.1557C117.392 7.68442 117.159 7.05203 117.159 6.25852C117.159 5.47927 117.376 4.83043 117.813 4.31312C118.269 3.76073 118.887 3.48454 119.666 3.48454C120.428 3.48454 121.007 3.76073 121.398 4.31312C121.714 4.75152 121.87 5.29404 121.87 5.93849ZM120.746 5.64147C120.755 5.30062 120.677 5.00689 120.518 4.75919C120.313 4.44026 120.002 4.28024 119.58 4.28024C119.196 4.28024 118.882 4.43587 118.643 4.74823C118.447 4.99703 118.331 5.29404 118.293 5.64147H120.746Z" fill="white"/>
<path d="M45.9232 28.572H43.3703L41.9719 24.2877H37.1113L35.7792 28.572H33.2938L38.1095 13.9864H41.0839L45.9232 28.572ZM41.5504 22.4903L40.2858 18.6817C40.152 18.2926 39.9013 17.3764 39.5315 15.934H39.4865C39.3393 16.5544 39.1021 17.4706 38.7761 18.6817L37.534 22.4903H41.5504Z" fill="white"/>
<path d="M58.3074 23.1841C58.3074 24.9728 57.8117 26.3866 56.8202 27.4245C55.9322 28.3485 54.8294 28.8099 53.5131 28.8099C52.0923 28.8099 51.0716 28.3123 50.4499 27.3171H50.405V32.8574H48.0084V21.5171C48.0084 20.3926 47.978 19.2385 47.9196 18.0548H50.0273L50.161 19.7218H50.206C51.0052 18.4658 52.2182 17.8389 53.8459 17.8389C55.1183 17.8389 56.1806 18.3288 57.0304 19.3097C57.8825 20.2917 58.3074 21.5828 58.3074 23.1841ZM55.8659 23.2696C55.8659 22.2459 55.6298 21.402 55.1554 20.7378C54.6372 20.0451 53.9414 19.6988 53.0691 19.6988C52.4778 19.6988 51.9405 19.8917 51.4605 20.272C50.9794 20.6556 50.6646 21.1565 50.5174 21.7768C50.4432 22.0662 50.4061 22.3029 50.4061 22.4892V24.2428C50.4061 25.0078 50.6467 25.6534 51.1278 26.1806C51.6089 26.7078 52.2339 26.9708 53.0028 26.9708C53.9054 26.9708 54.608 26.631 55.1105 25.9537C55.6141 25.2753 55.8659 24.3809 55.8659 23.2696Z" fill="white"/>
<path d="M70.7142 23.1841C70.7142 24.9728 70.2185 26.3866 69.2259 27.4245C68.339 28.3485 67.2362 28.8099 65.9199 28.8099C64.499 28.8099 63.4783 28.3123 62.8578 27.3171H62.8129V32.8574H60.4163V21.5171C60.4163 20.3926 60.3859 19.2385 60.3275 18.0548H62.4352L62.5689 19.7218H62.6139C63.412 18.4658 64.6249 17.8389 66.2538 17.8389C67.5251 17.8389 68.5874 18.3288 69.4395 19.3097C70.2882 20.2917 70.7142 21.5828 70.7142 23.1841ZM68.2726 23.2696C68.2726 22.2459 68.0355 21.402 67.5611 20.7378C67.0429 20.0451 66.3493 19.6988 65.4759 19.6988C64.8835 19.6988 64.3473 19.8917 63.8661 20.272C63.385 20.6556 63.0714 21.1565 62.9241 21.7768C62.8511 22.0662 62.8129 22.3029 62.8129 22.4892V24.2428C62.8129 25.0078 63.0534 25.6534 63.5323 26.1806C64.0134 26.7067 64.6384 26.9708 65.4095 26.9708C66.3122 26.9708 67.0148 26.631 67.5172 25.9537C68.0208 25.2753 68.2726 24.3809 68.2726 23.2696Z" fill="white"/>
<path d="M84.5857 24.4818C84.5857 25.7224 84.1439 26.7319 83.257 27.5111C82.2824 28.3627 80.9256 28.788 79.1821 28.788C77.5724 28.788 76.2819 28.4855 75.305 27.8794L75.8603 25.9318C76.9125 26.5521 78.067 26.8634 79.3248 26.8634C80.2275 26.8634 80.9301 26.6639 81.4348 26.2671C81.9373 25.8704 82.1879 25.3377 82.1879 24.6736C82.1879 24.0817 81.9811 23.583 81.5663 23.1786C81.1538 22.7742 80.4647 22.3983 79.5024 22.0508C76.8833 21.0984 75.5748 19.7032 75.5748 17.8685C75.5748 16.6695 76.0335 15.6863 76.9519 14.9213C77.8669 14.1552 79.0876 13.7727 80.6142 13.7727C81.9755 13.7727 83.1063 14.004 84.009 14.4654L83.4098 16.3702C82.5667 15.9231 81.6135 15.6995 80.5467 15.6995C79.7037 15.6995 79.0449 15.9023 78.5728 16.3056C78.1738 16.6662 77.9737 17.1057 77.9737 17.6263C77.9737 18.2028 78.2019 18.6795 78.6605 19.0544C79.0595 19.4007 79.7846 19.7755 80.8368 20.18C82.1239 20.6852 83.0692 21.276 83.6774 21.9533C84.2833 22.6284 84.5857 23.4734 84.5857 24.4818Z" fill="white"/>
<path d="M92.5095 19.8084H89.8678V24.9147C89.8678 26.2134 90.3332 26.8623 91.2662 26.8623C91.6945 26.8623 92.0497 26.8261 92.3307 26.7538L92.3971 28.5282C91.9249 28.7003 91.3033 28.7868 90.5333 28.7868C89.5868 28.7868 88.8471 28.5052 88.3132 27.9429C87.7815 27.3796 87.5139 26.4348 87.5139 25.1076V19.8062H85.9402V18.0526H87.5139V16.1269L89.8678 15.4342V18.0526H92.5095V19.8084Z" fill="white"/>
<path d="M104.428 23.2268C104.428 24.8434 103.954 26.1707 103.007 27.2086C102.015 28.2772 100.697 28.8099 99.0551 28.8099C97.4724 28.8099 96.2123 28.298 95.2725 27.2744C94.3327 26.2507 93.8629 24.9585 93.8629 23.4011C93.8629 21.7713 94.3462 20.4364 95.3163 19.3985C96.2842 18.3595 97.5904 17.84 99.2327 17.84C100.815 17.84 102.089 18.3518 103.05 19.3766C103.97 20.3707 104.428 21.6541 104.428 23.2268ZM101.942 23.3025C101.942 22.3325 101.729 21.5006 101.299 20.8069C100.796 19.9673 100.078 19.5486 99.1473 19.5486C98.1839 19.5486 97.4521 19.9684 96.9497 20.8069C96.5191 21.5017 96.3067 22.3467 96.3067 23.3463C96.3067 24.3163 96.5191 25.1481 96.9497 25.8408C97.4679 26.6803 98.1918 27.099 99.1259 27.099C100.041 27.099 100.759 26.6716 101.277 25.8189C101.719 25.112 101.942 24.2713 101.942 23.3025Z" fill="white"/>
<path d="M112.218 20.1098C111.981 20.0671 111.728 20.0451 111.463 20.0451C110.62 20.0451 109.968 20.3553 109.509 20.9767C109.11 21.5247 108.91 22.2174 108.91 23.0537V28.572H106.515L106.537 21.3669C106.537 20.1547 106.507 19.0511 106.447 18.0559H108.535L108.622 20.0682H108.689C108.942 19.3766 109.341 18.8198 109.887 18.4022C110.421 18.0263 110.998 17.8389 111.619 17.8389C111.841 17.8389 112.041 17.8542 112.218 17.8816V20.1098Z" fill="white"/>
<path d="M122.937 22.8158C122.937 23.2345 122.909 23.5874 122.849 23.8757H115.659C115.687 24.9147 116.035 25.7093 116.702 26.2573C117.308 26.7472 118.092 26.9927 119.054 26.9927C120.119 26.9927 121.09 26.8272 121.963 26.4951L122.339 28.1172C121.318 28.5512 120.113 28.7671 118.722 28.7671C117.05 28.7671 115.737 28.2871 114.781 27.3281C113.828 26.3691 113.35 25.0813 113.35 23.4658C113.35 21.8798 113.794 20.5592 114.684 19.5059C115.614 18.3814 116.872 17.8192 118.455 17.8192C120.01 17.8192 121.187 18.3814 121.986 19.5059C122.619 20.3991 122.937 21.5039 122.937 22.8158ZM120.651 22.2097C120.667 21.5171 120.511 20.9186 120.186 20.4134C119.771 19.7635 119.134 19.439 118.276 19.439C117.493 19.439 116.855 19.7558 116.369 20.3915C115.97 20.8967 115.732 21.5028 115.659 22.2086H120.651V22.2097Z" fill="white"/>
</svg>
