<svg width="64" height="64" viewBox="0 0 64 64" fill="none" xmlns="http://www.w3.org/2000/svg">
<rect width="64" height="64" rx="24" fill="#3D544D"/>
<path d="M43.75 31.9996C43.8881 31.9996 44.0003 32.1116 43.9974 32.2496C43.9531 34.3758 43.3444 36.4537 42.2317 38.2696C41.0754 40.1565 39.4198 41.687 37.4479 42.6917C35.476 43.6964 33.2647 44.1362 31.0585 43.9626C28.8523 43.789 26.737 43.0086 24.9466 41.7078C23.1562 40.407 21.7604 38.6364 20.9135 36.5918C20.0665 34.5472 19.8015 32.3082 20.1477 30.1224C20.4939 27.9366 21.4379 25.889 22.8751 24.2062C24.2582 22.5868 26.0464 21.3658 28.0548 20.6666C28.1852 20.6213 28.3264 20.6934 28.3691 20.8247L31.4948 30.4449C31.7961 31.3719 32.66 31.9996 33.6347 31.9996H43.75Z" fill="white" stroke="white" stroke-width="1.5"/>
<path d="M33.1446 20.5964C33.102 20.465 33.1737 20.3236 33.3064 20.2854C34.3365 19.9891 35.4201 19.922 36.4807 20.09C37.6237 20.271 38.7077 20.72 39.6439 21.4002C40.5802 22.0804 41.3422 22.9726 41.8676 24.0037C42.3551 24.9606 42.626 26.0118 42.6626 27.083C42.6673 27.221 42.5549 27.333 42.4168 27.333L36.2417 27.333C35.7002 27.333 35.2202 26.9843 35.0529 26.4693L33.1446 20.5964Z" fill="white" stroke="white" stroke-width="1.5"/>
</svg>
