<svg width="24" height="25" viewBox="0 0 24 25" fill="none" xmlns="http://www.w3.org/2000/svg">
<path d="M10.4962 4.85938C3.62469 6.19271 3 12.8594 3 12.8594M3 12.8594V17.1113C3 17.8065 3 18.1541 3.05736 18.4432C3.2937 19.6344 4.22493 20.5657 5.41618 20.802C5.70527 20.8594 6.05289 20.8594 6.74812 20.8594V20.8594C7.44335 20.8594 7.79097 20.8594 8.08006 20.802C9.2713 20.5657 10.2025 19.6344 10.4389 18.4432C10.4962 18.1541 10.4962 17.8065 10.4962 17.1113V16.8594C10.4962 15.9294 10.4962 15.4644 10.394 15.0829C10.1166 14.0476 9.30797 13.239 8.2727 12.9616C7.8912 12.8594 7.42621 12.8594 6.49624 12.8594H3Z" stroke="white" stroke-width="1.5"/>
<path d="M21.0001 4.85938C14.1286 6.19271 13.5039 12.8594 13.5039 12.8594M13.5039 12.8594V17.1113C13.5039 17.8065 13.5039 18.1541 13.5613 18.4432C13.7976 19.6344 14.7288 20.5657 15.9201 20.802C16.2092 20.8594 16.5568 20.8594 17.252 20.8594V20.8594C17.9473 20.8594 18.2949 20.8594 18.584 20.802C19.7752 20.5657 20.7064 19.6344 20.9428 18.4432C21.0001 18.1541 21.0001 17.8065 21.0001 17.1113V16.8594C21.0001 15.9294 21.0001 15.4644 20.8979 15.0829C20.6205 14.0476 19.8119 13.239 18.7766 12.9616C18.3951 12.8594 17.9301 12.8594 17.0001 12.8594H13.5039Z" stroke="white" stroke-width="1.5"/>
</svg>
