<svg width="64" height="64" viewBox="0 0 64 64" fill="none" xmlns="http://www.w3.org/2000/svg">
<rect width="64" height="64" rx="24" fill="#3D544D"/>
<path d="M30.5462 22.2419C31.3788 21.3444 31.795 20.8957 32.1331 20.8402C32.2662 20.8183 32.3287 20.8185 32.4616 20.8409C32.7994 20.898 33.2153 21.3503 34.0471 22.255C34.897 23.1793 35.9763 24.1143 37.0955 24.4651C37.9973 24.7478 39.2187 24.7433 40.2024 24.6705C40.9637 24.6141 41.3443 24.5859 41.6085 24.7357C41.6964 24.7855 41.7704 24.8434 41.84 24.9165C42.0493 25.1366 42.1061 25.4663 42.2197 26.1258C42.625 28.4791 43.1132 32.8106 41.8857 35.6279C40.7547 38.2238 37.6858 40.6387 35.3232 42.2012C34.212 42.9361 33.6563 43.3035 32.7455 43.4251C32.5051 43.4572 32.0857 43.4654 31.8443 43.4429C30.9294 43.3574 30.3587 43.0117 29.2175 42.3202C26.6873 40.787 23.3342 38.3501 22.126 35.6279C20.881 32.8227 21.3734 28.4974 21.7848 26.1391C21.9009 25.4738 21.9589 25.1411 22.1721 24.9205C22.2426 24.8474 22.3186 24.7892 22.4074 24.7401C22.6759 24.5916 23.0574 24.6261 23.8205 24.6951C24.9608 24.7983 26.4457 24.827 27.515 24.4651C28.6213 24.0907 29.6961 23.1584 30.5462 22.2419Z" fill="white" stroke="white" stroke-width="1.5" stroke-linejoin="round"/>
</svg>
